<?xml version="1.0" encoding="utf-8"?>
<svg width="100" height="100" viewBox="0 0 50 50" version="1.1" xmlns="http://www.w3.org/2000/svg">
  <title>Hacks.js</title>
  <path d="M25.453,0C25.417,0.261 25.431,0.552 25.498,0.868L28.862,16.691L16.931,19.227L13.567,3.404C13.309,2.187 12.491,1.636 11.316,1.885L2.942,3.665C1.767,3.915 1.244,4.752 1.502,5.968L10.861,50L0,50L0,0L25.453,0ZM37.924,0L50,0L50,50L22.996,50C23.224,49.612 23.283,49.111 23.157,48.52L19.497,31.299L31.428,28.763L35.088,45.984C35.347,47.2 36.165,47.752 37.34,47.502L45.714,45.722C46.889,45.473 47.412,44.636 47.153,43.419L37.924,0Z" style="fill:#333;"/>
</svg>
