<?xml version="1.0" encoding="utf-8"?>
<svg width="150" height="50" viewBox="0 0 150 50" version="1.1" xmlns="http://www.w3.org/2000/svg">
  <title>Hacks.js</title>
  <path d="M0,38.127L2.524,50L0,50L0,38.127ZM150,14.586C147.423,11.21 140.741,14.158 140.039,10.856C139.707,9.293 141.038,8.289 142.612,7.954C143.953,7.669 145.413,7.941 146.006,9.388C146.223,9.776 146.459,9.978 146.868,9.891L148.282,9.591C148.723,9.497 148.943,9.189 148.799,8.707C147.829,5.802 145.055,4.637 142.043,5.277C138.766,5.973 136.61,8.465 137.244,11.45C138.578,17.727 147.239,13.332 148.039,17.098C148.371,18.661 147.04,19.665 145.185,20.06C143.571,20.403 142.071,20.139 141.468,18.686C141.253,18.306 141.017,18.104 140.608,18.191L139.194,18.492C138.752,18.585 138.532,18.893 138.677,19.375C139.647,22.28 142.453,23.439 145.754,22.737C147.622,22.34 149.105,21.469 150,20.296L150,50L10.124,50C10.12,49.977 10.115,49.954 10.11,49.93L7.904,39.55L15.095,38.021L17.302,48.402C17.458,49.135 17.951,49.467 18.659,49.317L23.707,48.244C24.415,48.093 24.73,47.589 24.574,46.856L18.794,19.661C18.638,18.928 18.145,18.595 17.437,18.746L12.389,19.818C11.681,19.969 11.365,20.473 11.521,21.207L13.549,30.744L6.357,32.273L4.33,22.735C4.174,22.002 3.681,21.669 2.972,21.82L0,22.452L0,0L103.573,0C99.521,1.68 96.869,5.343 97.95,10.429C99.266,16.621 104.774,17.606 109.011,18.1C111.647,18.382 113.799,18.594 114.12,20.106C114.359,21.23 113.691,22.288 111.558,22.741C109.593,23.159 108.343,22.817 107.715,21.652C107.365,20.981 106.983,20.689 106.315,20.831L101.23,21.912C100.522,22.063 100.166,22.576 100.371,23.342C102.221,29.459 107.463,31.099 113.042,29.913L113.042,29.913C118.782,28.693 122.693,24.676 121.419,18.678C120.114,12.542 114.63,11.629 110.409,11.129C107.693,10.802 105.578,10.555 105.227,8.903C105.001,7.838 105.664,6.822 107.395,6.454C108.926,6.129 109.913,6.504 110.474,7.541C110.854,8.166 111.217,8.461 111.866,8.323L116.97,7.238C117.679,7.088 118.035,6.575 117.829,5.808C116.946,2.914 115.283,1.039 113.227,0L150,0L150,14.586ZM52.24,40.823L37.878,15.408C37.558,14.798 37.024,14.582 36.397,14.715L29.656,16.148C29.03,16.281 28.63,16.695 28.586,17.383L25.802,46.442C25.708,47.296 26.2,47.714 27.009,47.543L32.567,46.361C33.194,46.228 33.576,45.841 33.611,45.112L33.813,41.663L42.977,39.715L44.564,42.784C44.893,43.436 45.4,43.633 46.027,43.5L51.584,42.319C52.393,42.147 52.672,41.565 52.24,40.823L52.24,40.823ZM65.386,40.043C72.073,38.622 76.764,32.988 76.949,26.333C76.971,25.541 76.449,25.17 75.7,25.33L70.308,26.476C69.681,26.609 69.385,27.001 69.231,27.668C68.689,30.162 66.611,32.089 63.822,32.682C59.249,33.654 55.538,30.993 54.535,26.276C53.533,21.559 55.841,17.618 60.413,16.646C63.184,16.057 65.862,16.954 67.391,19.007C67.802,19.554 68.232,19.791 68.859,19.658L74.233,18.516C74.982,18.357 75.302,17.783 74.951,17.027C72.055,11.048 65.476,7.877 58.849,9.286C50.24,11.116 45.413,19.122 47.262,27.823C49.112,36.524 56.778,41.874 65.387,40.044L65.386,40.043ZM103.315,29.878L91.782,17.939L97.225,3.231C97.549,2.351 97.094,1.814 96.204,2.003L90.505,3.214C89.919,3.339 89.549,3.679 89.334,4.271L84.512,17.451L82.12,6.2C81.964,5.467 81.471,5.135 80.763,5.285L75.715,6.358C75.007,6.509 74.692,7.013 74.848,7.746L80.628,34.941C80.784,35.674 81.277,36.007 81.985,35.856L87.033,34.784C87.741,34.633 88.057,34.129 87.901,33.395L85.336,21.328L95.683,32.138C96.098,32.596 96.596,32.751 97.182,32.626L102.881,31.415C103.772,31.226 103.951,30.574 103.315,29.878L103.315,29.878ZM34.215,34.765L34.845,23.986L39.804,33.577L34.215,34.765ZM131.835,7.881L130.406,8.185C129.964,8.279 129.776,8.58 129.873,9.037L133.47,25.956C133.966,28.293 133.284,29.428 131.447,29.828C131.025,29.935 130.835,30.227 130.932,30.684L131.226,32.064C131.318,32.497 131.619,32.728 132.06,32.634C135.661,31.921 137.125,29.411 136.265,25.362L132.668,8.443C132.571,7.986 132.277,7.787 131.835,7.881ZM125.475,26.613L127.563,26.169C128.005,26.075 128.193,25.774 128.096,25.317L127.636,23.155C127.539,22.698 127.245,22.5 126.804,22.594L124.715,23.038C124.274,23.132 124.086,23.432 124.183,23.89L124.642,26.051C124.74,26.509 125.034,26.707 125.475,26.613ZM130.422,1.23L128.992,1.534C128.55,1.628 128.362,1.928 128.46,2.385L128.937,4.63C129.034,5.088 129.328,5.286 129.77,5.192L131.199,4.888C131.641,4.794 131.829,4.494 131.732,4.036L131.254,1.791C131.157,1.334 130.863,1.136 130.422,1.23Z" style="fill:#E6E6E6;"/>
</svg>
